<svg xmlns="http://www.w3.org/2000/svg" xmlns:xlink="http://www.w3.org/1999/xlink" viewBox="0 0 939.1 759.09">
  <defs>
    <style>
      .cls-1 {
        fill: none;
      }

      .cls-2 {
        isolation: isolate;
      }

      .cls-3 {
        clip-path: url(#clip-path);
      }

      .cls-4 {
        fill: #113766;
      }

      .cls-5 {
        fill: #12396a;
      }

      .cls-6 {
        fill: #123b6d;
      }

      .cls-7 {
        fill: #133d70;
      }

      .cls-8 {
        fill: #143e74;
      }

      .cls-9 {
        fill: #144077;
      }

      .cls-10 {
        fill: #15427a;
      }

      .cls-11 {
        fill: #15447d;
      }

      .cls-12 {
        fill: #164581;
      }

      .cls-13 {
        fill: #164784;
      }

      .cls-14 {
        clip-path: url(#clip-path-2);
      }

      .cls-15 {
        fill: #0f2e56;
      }

      .cls-16 {
        fill: #0f3058;
      }

      .cls-17 {
        clip-path: url(#clip-path-3);
      }

      .cls-18 {
        clip-path: url(#clip-path-4);
      }

      .cls-19 {
        clip-path: url(#clip-path-5);
      }

      .cls-20 {
        fill: #113563;
      }

      .cls-21 {
        fill: #103460;
      }

      .cls-22 {
        fill: #10325c;
      }

      .cls-23 {
        fill: #0f3059;
      }

      .cls-24 {
        clip-path: url(#clip-path-6);
      }

      .cls-25 {
        fill: #164580;
      }

      .cls-26 {
        fill: #b03c1d;
      }

      .cls-27 {
        fill: #7a2914;
      }

      .cls-28 {
        fill: #ba3f1f;
      }

      .cls-29 {
        fill: #923118;
      }

      .cls-30 {
        fill: #c44221;
      }

      .cls-31 {
        fill: #af3b1d;
      }

      .cls-32 {
        clip-path: url(#clip-path-7);
      }

      .cls-33 {
        clip-path: url(#clip-path-8);
      }

      .cls-34 {
        clip-path: url(#clip-path-9);
      }

      .cls-35 {
        clip-path: url(#clip-path-10);
      }

      .cls-36 {
        clip-path: url(#clip-path-11);
      }

      .cls-37 {
        clip-path: url(#clip-path-12);
      }
    </style>
    <clipPath id="clip-path" transform="translate(0)">
      <path class="cls-1" d="M124,725.06,88.75,704.58a9.73,9.73,0,0,0,3.06,1.13q8.91,1.69,31.76-11.13l35.24,20.48Q136,727.89,127.05,726.18A9.48,9.48,0,0,1,124,725.06Z"/>
    </clipPath>
    <clipPath id="clip-path-2" transform="translate(0)">
      <path class="cls-1" d="M100.27,756.26,65,735.78q-11-6.37-11-27.14l35.24,20.48Q89.29,749.88,100.27,756.26Z"/>
    </clipPath>
    <clipPath id="clip-path-3" transform="translate(0)">
      <path class="cls-1" d="M47,631.47,82.18,652q6.84,4,6.88,16.26L53.82,647.73Q53.78,635.44,47,631.47Z"/>
    </clipPath>
    <clipPath id="clip-path-4" transform="translate(0)">
      <path class="cls-1" d="M72.76,603.66,108,624.14q-9.25-5.39-27.17,1.32L45.59,605Q63.5,598.28,72.76,603.66Z"/>
    </clipPath>
    <clipPath id="clip-path-5" transform="translate(0)">
      <path class="cls-1" d="M35.24,636.45,0,616q53.64-31,53.54-65.43L88.78,571Q88.87,605.48,35.24,636.45Z"/>
    </clipPath>
    <clipPath id="clip-path-6" transform="translate(0)">
      <path class="cls-1" d="M88.61,510.29,53.37,489.81q-.15-52.33,69.36-93.56L158,416.73Q88.46,457.95,88.61,510.29Z"/>
    </clipPath>
    <clipPath id="clip-path-7" transform="translate(0)">
      <path class="cls-1" d="M816.14,335.55,780.9,315.07q22.7-13.27,31.64-25.39a44,44,0,0,0,8.9-26.87l35.24,20.48a44,44,0,0,1-8.9,26.87Q838.84,322.27,816.14,335.55Z"/>
    </clipPath>
    <clipPath id="clip-path-8" transform="translate(0)">
      <path class="cls-1" d="M856.51,222.93l-35.24-20.48q-.1-37.75,37-66.67l35.24,20.48Q856.41,185.18,856.51,222.93Z"/>
    </clipPath>
    <clipPath id="clip-path-9" transform="translate(0)">
      <path class="cls-1" d="M892.16,127.41l-35.24-20.48q12.33,7.17,46.86-12.76L939,114.65Q904.51,134.58,892.16,127.41Z"/>
    </clipPath>
    <clipPath id="clip-path-10" transform="translate(0)">
      <path class="cls-1" d="M866.17,155.44,830.93,135q-9.87-5.73-9.92-25.15l35.24,20.48Q856.3,149.72,866.17,155.44Z"/>
    </clipPath>
    <clipPath id="clip-path-11" transform="translate(0)">
      <path class="cls-1" d="M814.91,33.89l35.24,20.47q5.9,3.44,5.93,15.39L820.84,49.27Q820.79,37.3,814.91,33.89Z"/>
    </clipPath>
    <clipPath id="clip-path-12" transform="translate(0)">
      <path class="cls-1" d="M838.84,2.83l35.24,20.48q-16.73-9.72-58.79,13.91L780.05,16.74Q822.13-6.88,838.84,2.83Z"/>
    </clipPath>
  </defs>
  <title>Asset 2</title>
  <g id="Layer_2" data-name="Layer 2">
    <g id="Layer_2-2" data-name="Layer 2">
      <g>
        <g class="cls-2">
          <g class="cls-2">
            <g class="cls-3">
              <g class="cls-2">
                <path class="cls-4" d="M124,725.06,88.75,704.58l.1.06,35.24,20.48-.1-.06" transform="translate(0)"/>
                <path class="cls-5" d="M124.09,725.12,88.85,704.64a9.32,9.32,0,0,0,1,.47L125,725.59a9.32,9.32,0,0,1-1-.47" transform="translate(0)"/>
                <path class="cls-6" d="M125,725.59,89.8,705.11a9.27,9.27,0,0,0,1,.36L126.09,726a9.27,9.27,0,0,1-1-.36" transform="translate(0)"/>
                <path class="cls-7" d="M126.09,726,90.85,705.47q.47.13,1,.24l.18,0,35.24,20.48-.18,0a9.61,9.61,0,0,1-1-.23" transform="translate(0)"/>
                <path class="cls-8" d="M127.23,726.22,92,705.74c.39.06.8.11,1.23.14l35.24,20.48c-.43,0-.84-.08-1.23-.14" transform="translate(0)"/>
                <path class="cls-9" d="M128.46,726.36,93.22,705.88c.5,0,1,0,1.59,0l35.24,20.48c-.56,0-1.09,0-1.59,0" transform="translate(0)"/>
                <path class="cls-10" d="M130.05,726.37,94.81,705.89a21.38,21.38,0,0,0,2.26-.23l35.24,20.48a21.38,21.38,0,0,1-2.26.23" transform="translate(0)"/>
                <path class="cls-11" d="M132.31,726.14,97.07,705.66a32.78,32.78,0,0,0,3.6-.78l35.24,20.48a32.78,32.78,0,0,1-3.6.78" transform="translate(0)"/>
                <path class="cls-12" d="M135.91,725.36l-35.24-20.48a60.2,60.2,0,0,0,7.36-2.57l35.24,20.48a62,62,0,0,1-7.36,2.57" transform="translate(0)"/>
                <path class="cls-13" d="M143.27,722.79,108,702.31a150,150,0,0,0,15.54-7.73l35.24,20.48a150,150,0,0,1-15.54,7.73" transform="translate(0)"/>
              </g>
            </g>
          </g>
          <g class="cls-2">
            <g class="cls-14">
              <g class="cls-2">
                <path class="cls-15" d="M100.27,756.26,65,735.78q-11-6.37-11-27.14l35.24,20.48q.06,20.76,11,27.14" transform="translate(0)"/>
              </g>
            </g>
          </g>
          <polygon class="cls-16" points="89.23 729.12 53.99 708.64 53.81 647.73 89.06 668.21 89.23 729.12"/>
          <g class="cls-2">
            <g class="cls-17">
              <g class="cls-2">
                <path class="cls-15" d="M89.06,668.21,53.82,647.73q0-12.29-6.87-16.26L82.18,652q6.84,4,6.88,16.26" transform="translate(0)"/>
              </g>
            </g>
          </g>
          <g class="cls-2">
            <g class="cls-18">
              <g class="cls-2">
                <path class="cls-12" d="M80.83,625.46,45.59,605q3.42-1.28,6.51-2.11l35.24,20.47q-3.09.84-6.51,2.12" transform="translate(0)"/>
                <path class="cls-11" d="M87.34,623.34,52.1,602.87a51.07,51.07,0,0,1,5.47-1.18l35.24,20.48a50.93,50.93,0,0,0-5.47,1.17" transform="translate(0)"/>
                <path class="cls-10" d="M92.81,622.17,57.57,601.69a37.31,37.31,0,0,1,3.91-.4l35.24,20.48a37.31,37.31,0,0,0-3.91.4" transform="translate(0)"/>
                <path class="cls-9" d="M96.72,621.77,61.48,601.29a27.33,27.33,0,0,1,3,0l35.24,20.48a27.33,27.33,0,0,0-3,0" transform="translate(0)"/>
                <path class="cls-8" d="M99.73,621.79,64.49,601.31a23.66,23.66,0,0,1,2.46.29l35.24,20.48a23.66,23.66,0,0,0-2.46-.29" transform="translate(0)"/>
                <path class="cls-7" d="M102.19,622.08,67,601.6q1.08.2,2.1.48l35.24,20.48a20.06,20.06,0,0,0-2.1-.48" transform="translate(0)"/>
                <path class="cls-6" d="M104.29,622.56,69.05,602.08a17.53,17.53,0,0,1,1.85.65l35.24,20.48a17.53,17.53,0,0,0-1.85-.65" transform="translate(0)"/>
                <path class="cls-5" d="M106.14,623.21,70.9,602.73a16.54,16.54,0,0,1,1.69.83L107.83,624c-.54-.3-1.11-.57-1.69-.82" transform="translate(0)"/>
                <path class="cls-4" d="M107.83,624,72.59,603.56a1,1,0,0,1,.17.1L108,624.14l-.17-.11" transform="translate(0)"/>
              </g>
            </g>
          </g>
          <g class="cls-2">
            <g class="cls-19">
              <g class="cls-2">
                <path class="cls-13" d="M35.24,636.45,0,616q20.82-12,33.54-24.56l35.23,20.48q-12.72,12.54-33.53,24.56" transform="translate(0)"/>
                <path class="cls-12" d="M68.77,611.89,33.54,591.41c1.77-1.74,3.42-3.5,5-5.26l35.24,20.48q-2.3,2.64-5,5.26" transform="translate(0)"/>
                <path class="cls-11" d="M73.73,606.63,38.49,586.15q1.56-1.77,2.94-3.56l35.24,20.47q-1.38,1.8-2.94,3.57" transform="translate(0)"/>
                <path class="cls-10" d="M76.67,603.06,41.43,582.59c.74-1,1.45-1.9,2.12-2.85l35.23,20.47c-.66,1-1.37,1.91-2.11,2.85" transform="translate(0)"/>
                <path class="cls-9" d="M78.78,600.21,43.55,579.74c.58-.83,1.13-1.66,1.66-2.48l35.24,20.47c-.53.83-1.09,1.66-1.67,2.48" transform="translate(0)"/>
                <path class="cls-8" d="M80.45,597.73,45.21,577.26c.46-.73.9-1.45,1.33-2.18l35.24,20.48c-.43.73-.87,1.45-1.33,2.17" transform="translate(0)"/>
                <path class="cls-7" d="M81.78,595.56,46.54,575.08c.4-.68.79-1.37,1.15-2.06L82.93,593.5c-.36.69-.75,1.37-1.15,2.06" transform="translate(0)"/>
                <path class="cls-6" d="M82.93,593.5,47.69,573q.54-1,1-2L84,591.49q-.48,1-1,2" transform="translate(0)"/>
                <path class="cls-5" d="M84,591.49,48.71,571c.32-.65.62-1.31.9-2l35.24,20.48c-.28.66-.58,1.32-.9,2" transform="translate(0)"/>
                <path class="cls-4" d="M84.85,589.52,49.61,569c.29-.67.57-1.34.83-2L85.68,587.5c-.26.68-.54,1.35-.83,2" transform="translate(0)"/>
                <path class="cls-20" d="M85.68,587.5,50.44,567c.27-.71.52-1.42.76-2.13l35.24,20.48c-.24.71-.49,1.42-.76,2.12" transform="translate(0)"/>
                <path class="cls-21" d="M86.44,585.38,51.2,564.9c.26-.78.5-1.57.72-2.36L87.16,583c-.22.79-.46,1.58-.72,2.36" transform="translate(0)"/>
                <path class="cls-22" d="M87.16,583,51.92,562.54q.38-1.37.66-2.73l35.24,20.48q-.28,1.37-.66,2.73" transform="translate(0)"/>
                <path class="cls-23" d="M87.82,580.29,52.58,559.81c.26-1.21.46-2.43.62-3.65l35.24,20.48c-.16,1.22-.36,2.44-.62,3.65" transform="translate(0)"/>
                <path class="cls-15" d="M88.44,576.64,53.2,556.16a44,44,0,0,0,.34-5.62L88.78,571a46,46,0,0,1-.34,5.63" transform="translate(0)"/>
              </g>
            </g>
          </g>
          <polygon class="cls-16" points="35.32 664.71 0.08 644.23 0 615.97 35.24 636.45 35.32 664.71"/>
          <polygon class="cls-16" points="88.78 571.01 53.54 550.54 53.37 489.81 88.61 510.29 88.78 571.01"/>
          <g class="cls-2">
            <g class="cls-24">
              <g class="cls-2">
                <path class="cls-15" d="M88.61,510.29,53.37,489.81A76.44,76.44,0,0,1,54,479.75l35.24,20.48a76.44,76.44,0,0,0-.63,10.06" transform="translate(0)"/>
                <path class="cls-23" d="M89.24,500.23,54,479.75q.39-3,1-6.06l35.24,20.48q-.64,3-1,6.06" transform="translate(0)"/>
                <path class="cls-22" d="M90.27,494.17,55,473.69c.32-1.53.7-3.05,1.12-4.56l35.24,20.48c-.42,1.51-.8,3-1.12,4.56" transform="translate(0)"/>
                <path class="cls-21" d="M91.39,489.61,56.15,469.13c.35-1.25.73-2.5,1.14-3.74l35.24,20.48c-.41,1.24-.8,2.49-1.14,3.74" transform="translate(0)"/>
                <path class="cls-20" d="M92.53,485.87,57.29,465.39c.38-1.14.79-2.28,1.22-3.41l35.24,20.48c-.44,1.13-.84,2.27-1.22,3.41" transform="translate(0)"/>
                <path class="cls-4" d="M93.75,482.46,58.51,462c.41-1.08.85-2.16,1.32-3.23l35.24,20.48c-.47,1.07-.91,2.15-1.32,3.23" transform="translate(0)"/>
                <path class="cls-5" d="M95.07,479.23,59.83,458.75q.68-1.54,1.41-3.09l35.24,20.48q-.74,1.55-1.41,3.09" transform="translate(0)"/>
                <path class="cls-6" d="M96.48,476.14,61.24,455.66c.51-1,1-2.07,1.58-3.1L98.06,473c-.55,1-1.08,2.07-1.58,3.11" transform="translate(0)"/>
                <path class="cls-7" d="M98.06,473,62.82,452.56c.56-1.05,1.14-2.1,1.74-3.13L99.8,469.9c-.6,1-1.18,2.09-1.74,3.13" transform="translate(0)"/>
                <path class="cls-8" d="M99.8,469.9,64.56,449.43c.66-1.13,1.34-2.25,2.06-3.36l35.24,20.48c-.72,1.11-1.4,2.23-2.06,3.35" transform="translate(0)"/>
                <path class="cls-9" d="M101.86,466.55,66.62,446.07q1.17-1.85,2.46-3.66l35.24,20.47q-1.29,1.83-2.46,3.67" transform="translate(0)"/>
                <path class="cls-10" d="M104.32,462.88,69.08,442.41q1.47-2.1,3.08-4.17l35.24,20.48c-1.08,1.38-2.1,2.77-3.08,4.16" transform="translate(0)"/>
                <path class="cls-11" d="M107.4,458.72,72.16,438.24q2-2.58,4.23-5.13l35.24,20.48q-2.22,2.55-4.23,5.13" transform="translate(0)"/>
                <path class="cls-12" d="M111.63,453.59,76.39,433.11q3.21-3.69,6.88-7.3l35.24,20.48q-3.67,3.61-6.88,7.3" transform="translate(0)"/>
                <path class="cls-13" d="M118.51,446.29,83.27,425.81q15.63-15.44,39.46-29.56L158,416.73q-23.82,14.13-39.46,29.56" transform="translate(0)"/>
              </g>
            </g>
          </g>
          <path class="cls-25" d="M158,416.73,158,443.9q-22.84,13.56-31.71,25.52a43.6,43.6,0,0,0-8.83,26.75l.17,60.54q.1,37.74-36.84,66.57v2.18q37-13.86,37.1,23.89l.17,60.35q0,14.77,9,16.48t31.76-11.12l.08,27.36q-69.51,39-69.66-13.3l-.17-60.91q-.11-34.47-53.74-3.5l-.08-28.26q53.64-31,53.54-65.44l-.17-60.72Q88.46,458,158,416.73Z" transform="translate(0)"/>
        </g>
        <g class="cls-2">
          <polygon class="cls-26" points="251.67 497.61 216.43 477.13 330.07 473.98 365.31 494.46 251.67 497.61"/>
          <polygon class="cls-26" points="364.88 340.56 364.96 369.74 251.67 497.61 365.31 494.46 365.39 523.64 218.68 525.97 218.63 507.37 364.88 340.56"/>
          <polygon class="cls-27" points="218.68 525.97 183.44 505.49 183.39 486.89 218.63 507.37 218.68 525.97"/>
          <polygon class="cls-28" points="218.63 507.37 183.39 486.89 329.63 320.08 364.88 340.56 218.63 507.37"/>
        </g>
        <g class="cls-2">
          <polygon class="cls-26" points="550.42 190.14 451.68 514.19 423.43 530.5 522.18 206.45 550.42 190.14"/>
          <polygon class="cls-29" points="423.43 530.5 388.19 510.02 486.94 185.97 522.18 206.45 423.43 530.5"/>
          <polygon class="cls-30" points="522.18 206.45 486.94 185.97 515.18 169.66 550.42 190.14 522.18 206.45"/>
        </g>
        <g class="cls-2">
          <polygon class="cls-27" points="608.99 383 573.75 362.52 573.67 333.34 608.91 353.82 608.99 383"/>
          <polygon class="cls-28" points="608.91 353.82 573.67 333.34 686.8 205.56 722.04 226.03 608.91 353.82"/>
          <polygon class="cls-26" points="608.48 199.92 755.18 197.59 755.24 216.19 608.99 383 608.91 353.82 722.04 226.03 608.56 229.09 608.48 199.92"/>
          <polygon class="cls-31" points="608.48 199.92 573.24 179.44 719.95 177.11 755.18 197.59 608.48 199.92"/>
          <polygon class="cls-27" points="608.56 229.09 573.32 208.61 573.24 179.44 608.48 199.92 608.56 229.09"/>
        </g>
        <g class="cls-2">
          <polygon class="cls-16" points="816.22 362.91 780.98 342.43 780.9 315.07 816.14 335.55 816.22 362.91"/>
          <g class="cls-2">
            <g class="cls-32">
              <g class="cls-2">
                <path class="cls-13" d="M816.14,335.55,780.9,315.07q16.71-9.78,26-18.92l35.24,20.48q-9.26,9.15-26,18.92" transform="translate(0)"/>
                <path class="cls-12" d="M842.1,316.63l-35.24-20.48c1.16-1.14,2.24-2.29,3.23-3.42l35.24,20.48q-1.49,1.69-3.23,3.42" transform="translate(0)"/>
                <path class="cls-11" d="M845.33,313.21l-35.24-20.48c.64-.74,1.24-1.47,1.8-2.2L847.13,311c-.56.73-1.16,1.46-1.8,2.2" transform="translate(0)"/>
                <path class="cls-10" d="M847.13,311l-35.24-20.48c.22-.28.44-.56.65-.85s.49-.66.72-1l35.24,20.48c-.23.34-.48.67-.72,1s-.43.57-.65.85" transform="translate(0)"/>
                <path class="cls-9" d="M848.5,309.16l-35.24-20.48c.41-.58.8-1.17,1.18-1.76l35.24,20.48c-.38.59-.77,1.18-1.18,1.76" transform="translate(0)"/>
                <path class="cls-8" d="M849.68,307.4l-35.24-20.48c.35-.54.68-1.09,1-1.64l35.24,20.48c-.32.55-.65,1.1-1,1.64" transform="translate(0)"/>
                <path class="cls-7" d="M850.68,305.76l-35.24-20.48c.31-.53.61-1.06.89-1.59l35.24,20.48c-.29.53-.58,1.06-.89,1.59" transform="translate(0)"/>
                <path class="cls-6" d="M851.57,304.17l-35.24-20.48c.28-.52.54-1.05.8-1.57l35.24,20.47c-.26.53-.52,1.06-.8,1.58" transform="translate(0)"/>
                <path class="cls-5" d="M852.37,302.59l-35.24-20.47c.25-.54.5-1.07.73-1.61L853.1,301c-.23.54-.48,1.08-.73,1.61" transform="translate(0)"/>
                <path class="cls-4" d="M853.1,301l-35.24-20.47c.25-.56.48-1.13.69-1.69l35.24,20.48c-.21.56-.44,1.13-.69,1.68" transform="translate(0)"/>
                <path class="cls-20" d="M853.79,299.3l-35.24-20.48q.36-.92.66-1.83l35.24,20.48q-.3.91-.66,1.83" transform="translate(0)"/>
                <path class="cls-21" d="M854.45,297.47,819.21,277c.23-.69.44-1.39.64-2.09l35.24,20.48c-.2.7-.41,1.4-.64,2.09" transform="translate(0)"/>
                <path class="cls-22" d="M855.09,295.38,819.85,274.9c.23-.83.44-1.68.62-2.53l35.24,20.48c-.18.85-.39,1.69-.62,2.53" transform="translate(0)"/>
                <path class="cls-23" d="M855.71,292.85l-35.24-20.48c.24-1.15.44-2.32.6-3.5l35.24,20.48c-.16,1.18-.36,2.35-.6,3.5" transform="translate(0)"/>
                <path class="cls-15" d="M856.31,289.35l-35.24-20.48a46.52,46.52,0,0,0,.37-6.06l35.24,20.48a46.63,46.63,0,0,1-.37,6.06" transform="translate(0)"/>
              </g>
            </g>
          </g>
          <polygon class="cls-16" points="856.68 283.29 821.44 262.81 821.27 202.45 856.51 222.93 856.68 283.29"/>
          <polygon class="cls-16" points="893.52 156.26 858.28 135.78 858.28 133.59 893.51 154.07 893.52 156.26"/>
          <g class="cls-2">
            <g class="cls-33">
              <g class="cls-2">
                <path class="cls-15" d="M856.51,222.93l-35.24-20.48a73.85,73.85,0,0,1,.59-9.57l35.24,20.48a73.85,73.85,0,0,0-.59,9.57" transform="translate(0)"/>
                <path class="cls-23" d="M857.1,213.36l-35.24-20.48c.25-1.94.57-3.87,1-5.77l35.24,20.48c-.41,1.9-.73,3.83-1,5.77" transform="translate(0)"/>
                <path class="cls-22" d="M858.08,207.59l-35.24-20.48c.3-1.39.63-2.77,1-4.14l35.24,20.48c-.38,1.37-.71,2.75-1,4.14" transform="translate(0)"/>
                <path class="cls-21" d="M859.09,203.45,823.85,183c.33-1.16.68-2.32,1.06-3.46L860.15,200c-.38,1.15-.73,2.31-1.06,3.47" transform="translate(0)"/>
                <path class="cls-20" d="M860.15,200l-35.24-20.47c.34-1,.71-2.06,1.1-3.09l35.24,20.48c-.39,1-.76,2-1.1,3.08" transform="translate(0)"/>
                <path class="cls-4" d="M861.25,196.9,826,176.42q.56-1.42,1.17-2.85l35.24,20.48c-.41.94-.8,1.9-1.17,2.85" transform="translate(0)"/>
                <path class="cls-5" d="M862.42,194.05l-35.24-20.48c.4-.91.81-1.82,1.25-2.72l35.24,20.48c-.44.9-.85,1.81-1.25,2.72" transform="translate(0)"/>
                <path class="cls-6" d="M863.67,191.33l-35.24-20.48c.43-.91.89-1.81,1.37-2.7L865,188.63c-.48.89-.94,1.79-1.37,2.7" transform="translate(0)"/>
                <path class="cls-7" d="M865,188.63,829.8,168.15c.49-.92,1-1.84,1.52-2.74l35.24,20.48c-.53.9-1,1.82-1.52,2.74" transform="translate(0)"/>
                <path class="cls-8" d="M866.56,185.89l-35.24-20.48c.56-1,1.14-1.91,1.75-2.85L868.31,183c-.61.94-1.19,1.89-1.75,2.85" transform="translate(0)"/>
                <path class="cls-9" d="M868.31,183l-35.24-20.48c.66-1,1.34-2.06,2.06-3.08L870.37,180c-.72,1-1.4,2-2.06,3.08" transform="translate(0)"/>
                <path class="cls-10" d="M870.37,180l-35.24-20.48q1.23-1.75,2.58-3.48L873,176.48q-1.35,1.72-2.58,3.48" transform="translate(0)"/>
                <path class="cls-11" d="M873,176.48,837.71,156q1.65-2.13,3.47-4.23l35.24,20.48c-1.21,1.4-2.37,2.8-3.47,4.23" transform="translate(0)"/>
                <path class="cls-12" d="M876.42,172.25l-35.24-20.48q2.66-3,5.64-6l35.24,20.48q-3,3-5.64,6" transform="translate(0)"/>
                <path class="cls-13" d="M882.06,166.26l-35.24-20.48a131.12,131.12,0,0,1,11.46-10l35.24,20.48a131.12,131.12,0,0,0-11.46,10" transform="translate(0)"/>
              </g>
            </g>
          </g>
          <g class="cls-2">
            <g class="cls-34">
              <g class="cls-2">
                <path class="cls-4" d="M892.16,127.41l-35.24-20.48.14.08,35.24,20.48-.14-.08" transform="translate(0)"/>
                <path class="cls-5" d="M892.3,127.49,857.06,107a12.85,12.85,0,0,0,1.29.63l35.24,20.48a12.85,12.85,0,0,1-1.29-.63" transform="translate(0)"/>
                <path class="cls-6" d="M893.59,128.12l-35.24-20.48a13.76,13.76,0,0,0,1.49.52l35.24,20.48a13.76,13.76,0,0,1-1.49-.52" transform="translate(0)"/>
                <path class="cls-7" d="M895.08,128.64l-35.24-20.48a14.57,14.57,0,0,0,1.7.39L896.78,129a14.57,14.57,0,0,1-1.7-.39" transform="translate(0)"/>
                <path class="cls-8" d="M896.78,129l-35.24-20.48a18.33,18.33,0,0,0,2,.23l35.24,20.48a18.33,18.33,0,0,1-2-.23" transform="translate(0)"/>
                <path class="cls-9" d="M898.8,129.26l-35.24-20.48a22.25,22.25,0,0,0,2.59,0l35.24,20.48a22.25,22.25,0,0,1-2.59,0" transform="translate(0)"/>
                <path class="cls-10" d="M901.39,129.28,866.15,108.8a31.1,31.1,0,0,0,3.44-.35l35.24,20.48a31.1,31.1,0,0,1-3.44.35" transform="translate(0)"/>
                <path class="cls-11" d="M904.83,128.93l-35.24-20.48a47.39,47.39,0,0,0,5.22-1.12L910,127.81a46.75,46.75,0,0,1-5.21,1.12" transform="translate(0)"/>
                <path class="cls-12" d="M910,127.81l-35.23-20.48a79.31,79.31,0,0,0,9.41-3.29l35.24,20.48a78.8,78.8,0,0,1-9.42,3.29" transform="translate(0)"/>
                <path class="cls-13" d="M919.46,124.52,884.22,104a167.85,167.85,0,0,0,19.56-9.87L939,114.65a167.85,167.85,0,0,1-19.56,9.87" transform="translate(0)"/>
              </g>
            </g>
          </g>
          <g class="cls-2">
            <g class="cls-35">
              <g class="cls-2">
                <path class="cls-15" d="M866.17,155.44,830.93,135q-9.87-5.73-9.92-25.15l35.24,20.48q0,19.43,9.92,25.15" transform="translate(0)"/>
              </g>
            </g>
          </g>
          <polygon class="cls-16" points="856.25 130.29 821.01 109.81 820.84 49.27 856.08 69.75 856.25 130.29"/>
          <g class="cls-2">
            <g class="cls-36">
              <g class="cls-2">
                <path class="cls-15" d="M856.08,69.75,820.84,49.27q0-12-5.93-15.38l35.24,20.47q5.9,3.44,5.93,15.39" transform="translate(0)"/>
              </g>
            </g>
          </g>
          <polygon class="cls-16" points="815.37 64.39 780.13 43.91 780.05 16.74 815.29 37.22 815.37 64.39"/>
          <g class="cls-2">
            <g class="cls-37">
              <g class="cls-2">
                <path class="cls-13" d="M815.29,37.22,780.05,16.74A199.79,199.79,0,0,1,801,6.39L836.2,26.87a200.68,200.68,0,0,0-20.91,10.35" transform="translate(0)"/>
                <path class="cls-12" d="M836.2,26.87,801,6.39a106,106,0,0,1,12.44-4.34l35.24,20.48a106.79,106.79,0,0,0-12.45,4.34" transform="translate(0)"/>
                <path class="cls-11" d="M848.65,22.53,813.41,2.05a67.57,67.57,0,0,1,7.1-1.53L855.75,21a62.85,62.85,0,0,0-7.1,1.53" transform="translate(0)"/>
                <path class="cls-10" d="M855.75,21,820.51.52A46.6,46.6,0,0,1,825.29,0l35.24,20.48a46.6,46.6,0,0,0-4.78.48" transform="translate(0)"/>
                <path class="cls-9" d="M860.53,20.52,825.29,0a34.78,34.78,0,0,1,3.69,0l35.24,20.48a34.78,34.78,0,0,0-3.69,0" transform="translate(0)"/>
                <path class="cls-8" d="M864.22,20.54,829,.06a27.44,27.44,0,0,1,3,.35l35.24,20.48a27.44,27.44,0,0,0-3-.35" transform="translate(0)"/>
                <path class="cls-7" d="M867.19,20.89,832,.41a23.44,23.44,0,0,1,2.5.57l35.24,20.48a19.4,19.4,0,0,0-2.5-.57" transform="translate(0)"/>
                <path class="cls-6" d="M869.69,21.46,834.45,1a21.28,21.28,0,0,1,2.21.77L871.9,22.23a19.86,19.86,0,0,0-2.21-.77" transform="translate(0)"/>
                <path class="cls-5" d="M871.9,22.23,836.66,1.75a21.12,21.12,0,0,1,2,1l35.24,20.48a21.12,21.12,0,0,0-2-1" transform="translate(0)"/>
                <path class="cls-4" d="M873.87,23.19,838.63,2.71l.21.12,35.24,20.48-.21-.12" transform="translate(0)"/>
              </g>
            </g>
          </g>
          <path class="cls-25" d="M815.29,37.22Q885-1.91,885.11,50.43l.17,60.72q.11,34.47,53.74,3.5l.08,28.26q-53.64,31-53.54,65.44l.17,60.9q.15,52.35-69.51,93.66l-.08-27.36q22.7-13.28,31.64-25.39a44,44,0,0,0,8.9-26.87l-.17-60.36q-.1-37.76,37-66.67v-2.19q-37.17,14-37.27-23.78l-.17-60.54q0-14.78-9-16.53T815.37,64.39Z" transform="translate(0)"/>
        </g>
      </g>
    </g>
  </g>
</svg>
