<?xml version="1.0" standalone="no"?>
<!DOCTYPE svg PUBLIC "-//W3C//DTD SVG 20010904//EN"
 "http://www.w3.org/TR/2001/REC-SVG-20010904/DTD/svg10.dtd">
<svg version="1.0" xmlns="http://www.w3.org/2000/svg"
 width="1000.000000pt" height="1000.000000pt" viewBox="0 0 1000.000000 1000.000000"
 preserveAspectRatio="xMidYMid meet">
<metadata>
Created by potrace 1.11, written by Peter Selinger 2001-2013
</metadata>
<g transform="translate(0.000000,1000.000000) scale(0.100000,-0.100000)"
fill="#000000" stroke="none">
<path d="M8530 8947 c-58 -19 -152 -58 -210 -88 l-105 -54 -3 -141 -3 -142
213 -124 213 -123 5 -280 5 -280 29 -58 c29 -60 47 -75 194 -158 l54 -30 -44
-47 c-97 -105 -166 -221 -205 -349 l-27 -88 -3 -415 c-1 -255 -7 -432 -14
-460 -14 -61 -60 -139 -121 -205 -50 -55 -195 -167 -256 -199 l-32 -17 0 -142
0 -143 197 -115 c108 -62 204 -118 214 -123 38 -19 282 155 439 313 157 158
239 294 282 471 20 80 21 108 19 460 -2 307 0 389 13 450 40 192 188 366 456
536 l90 57 0 147 0 148 -107 63 c-60 34 -128 74 -153 89 -25 15 -71 42 -104
60 l-58 33 -62 -32 c-33 -17 -64 -31 -68 -31 -3 0 -8 136 -10 303 -4 285 -5
305 -27 359 -24 61 -75 114 -141 147 -33 16 -113 62 -245 139 -157 92 -165 95
-244 99 -64 3 -92 -2 -181 -30z"/>
<path d="M5300 7123 c-90 -52 -148 -92 -153 -105 -7 -19 -41 -132 -177 -578
-21 -69 -70 -231 -110 -360 -39 -129 -93 -307 -120 -395 -26 -88 -71 -236
-100 -330 -29 -93 -69 -226 -90 -295 -38 -124 -77 -253 -146 -477 -20 -65 -58
-190 -84 -278 -115 -378 -189 -622 -195 -636 -4 -11 49 -47 206 -138 119 -69
217 -120 226 -117 13 5 272 154 282 162 2 2 27 81 56 176 29 95 76 250 105
343 28 94 70 229 91 300 22 72 72 234 110 360 39 127 92 302 119 390 26 88 71
237 99 330 29 94 63 204 76 245 13 41 44 145 70 230 25 85 50 166 55 180 5 14
29 93 54 175 25 83 79 262 121 398 41 136 73 252 70 257 -4 7 -394 237 -415
245 -3 1 -70 -36 -150 -82z"/>
<path d="M6945 7119 c-181 -3 -457 -7 -612 -8 l-283 -1 0 -153 c0 -147 1 -153
23 -166 12 -8 107 -64 211 -124 l189 -110 263 6 c227 5 292 1 257 -15 -8 -3
-101 -107 -388 -432 -83 -93 -239 -269 -347 -390 l-197 -221 -1 -156 0 -156
83 -48 c45 -27 134 -79 198 -116 64 -38 123 -71 131 -74 15 -6 40 21 564 620
159 182 399 456 534 609 135 154 289 330 343 392 l97 112 0 99 0 98 -212 123
-213 122 -155 -2 c-85 -1 -303 -5 -485 -9z"/>
<path d="M3238 5327 c-150 -172 -495 -565 -766 -874 l-492 -561 0 -95 0 -95
211 -123 212 -122 566 6 c311 4 657 10 769 14 l202 6 0 151 0 151 -213 123
-212 122 -205 -5 c-113 -3 -229 -8 -257 -10 -35 -4 -53 -1 -53 6 0 6 42 57 93
113 50 56 139 155 198 221 58 66 159 181 224 255 65 74 122 137 125 140 3 3
72 80 153 172 l147 168 -4 151 -5 152 -68 40 c-37 22 -99 58 -138 80 -38 22
-102 60 -142 83 l-72 43 -273 -312z"/>
<path d="M1242 4773 c-270 -182 -431 -348 -528 -544 -80 -162 -87 -215 -88
-684 -2 -445 -1 -438 -73 -570 -66 -118 -243 -282 -421 -389 l-63 -38 3 -150
3 -151 209 -122 210 -122 59 34 c32 18 63 33 67 33 5 0 10 -134 12 -297 6
-397 13 -419 166 -506 42 -24 104 -60 137 -79 33 -19 109 -64 170 -99 l109
-64 91 0 c68 0 107 6 160 24 89 30 235 94 286 127 l40 25 -3 137 -3 137 -47
30 c-27 16 -94 56 -150 89 -57 32 -131 75 -165 95 l-63 36 0 241 c0 255 -7
321 -42 392 -21 45 -65 78 -188 145 l-53 29 45 46 c101 106 162 210 205 347
l27 90 2 416 c2 466 4 479 72 584 49 77 138 158 257 237 l95 63 0 137 0 136
-42 27 c-24 15 -90 54 -148 87 -58 33 -135 78 -171 99 -36 21 -68 39 -71 39
-3 0 -51 -30 -106 -67z"/>
</g>
</svg>
